<?xml version="1.0" standalone="no"?>
<!DOCTYPE svg PUBLIC "-//W3C//DTD SVG 20010904//EN" "http://www.w3.org/TR/2001/REC-SVG-20010904/DTD/svg10.dtd">
<!-- Created using Karbon, part of Calligra: http://www.calligra.org/karbon -->
<svg xmlns="http://www.w3.org/2000/svg" xmlns:xlink="http://www.w3.org/1999/xlink" width="595.277pt" height="541.891pt">
<defs>
  <path id="baseline0" d="M377.674 198.683L705.314 198.683L705.314 253.58L377.674 253.58L377.674 198.683"/>
 </defs>
<g id="layer0">
  <rect id="shape0" transform="translate(17.2863, 99.6896)" fill="#ffffff" fill-opacity="0.00000000000" fill-rule="evenodd" stroke="#000000" stroke-width="1.25000000000" stroke-linecap="square" stroke-linejoin="miter" stroke-miterlimit="2.00000000000" width="77.74260966500pt" height="43.25390894596pt"/>
  <rect id="shape1" transform="translate(196.194, 100.669)" fill="#ffffff" fill-opacity="0.00000000000" fill-rule="evenodd" stroke="#000000" stroke-width="1.25000000000" stroke-linecap="square" stroke-linejoin="miter" stroke-miterlimit="2.00000000000" width="186.16647177628pt" height="41.75066074602pt"/>
  <rect id="shape2" transform="translate(504.977, 100.853)" fill="#ffffff" fill-opacity="0.00000000000" fill-rule="evenodd" stroke="#000000" stroke-width="1.25000000000" stroke-linecap="square" stroke-linejoin="miter" stroke-miterlimit="2.00000000000" width="159.80425320027pt" height="41.39255907840pt"/>
  <rect id="shape3" transform="translate(377.674, 198.683)" fill="#ffffff" fill-opacity="0.00000000000" fill-rule="evenodd" stroke="#000000" stroke-width="1.25000000000" stroke-linecap="square" stroke-linejoin="miter" stroke-miterlimit="2.00000000000" width="192.11236470163pt" height="43.91744896743pt"/>
  <rect id="shape4" transform="translate(9.84758, 199.111)" fill="#ffffff" fill-opacity="0.00000000000" fill-rule="evenodd" stroke="#000000" stroke-width="1.25000000000" stroke-linecap="square" stroke-linejoin="miter" stroke-miterlimit="2.00000000000" width="246.41320039812pt" height="44.33912087824pt"/>
  <rect id="shape5" transform="translate(17.6454, 311.213)" fill="#ffffff" fill-opacity="0.00000000000" fill-rule="evenodd" stroke="#000000" stroke-width="1.25000000000" stroke-linecap="square" stroke-linejoin="miter" stroke-miterlimit="2.00000000000" width="168.64908017562pt" height="43.91744896743pt"/>
  <rect id="shape6" transform="translate(338.256, 310.763)" fill="#ffffff" fill-opacity="0.00000000000" fill-rule="evenodd" stroke="#000000" stroke-width="1.25000000000" stroke-linecap="square" stroke-linejoin="miter" stroke-miterlimit="2.00000000000" width="136.25632614854pt" height="43.91744896743pt"/>
  <rect id="shape7" transform="translate(535.312, 312.112)" fill="#ffffff" fill-opacity="0.00000000000" fill-rule="evenodd" stroke="#000000" stroke-width="1.25000000000" stroke-linecap="square" stroke-linejoin="miter" stroke-miterlimit="2.00000000000" width="136.25632614854pt" height="43.91744896743pt"/>
  <path id="shape8" transform="translate(46.5821, 153.824)" fill="#ffffff" fill-opacity="0.00000000000" fill-rule="evenodd" stroke="#000000" stroke-width="1.25000000000" stroke-linecap="square" stroke-linejoin="miter" stroke-miterlimit="2.00000000000" d="M13.6954 18.0696L0 18.0696L19.5648 0L39.1296 18.0696L25.4342 18.0696L25.4342 45.174L13.6954 45.174Z"/>
  <path id="shape9" transform="translate(200.556, 153.824)" fill="#ffffff" fill-opacity="0.00000000000" fill-rule="evenodd" stroke="#000000" stroke-width="1.25000000000" stroke-linecap="square" stroke-linejoin="miter" stroke-miterlimit="2.00000000000" d="M13.6954 18.0696L0 18.0696L19.5648 0L39.1296 18.0696L25.4342 18.0696L25.4342 45.174L13.6954 45.174Z"/>
  <path id="shape10" transform="translate(385.969, 153.506)" fill="#ffffff" fill-opacity="0.00000000000" fill-rule="evenodd" stroke="#000000" stroke-width="1.25000000000" stroke-linecap="square" stroke-linejoin="miter" stroke-miterlimit="2.00000000000" d="M13.6954 18.0696L0 18.0696L19.5648 0L39.1296 18.0696L25.4342 18.0696L25.4342 45.174L13.6954 45.174Z"/>
  <path id="shape11" transform="translate(587.08, 153.506)" fill="#ffffff" fill-opacity="0.00000000000" fill-rule="evenodd" stroke="#000000" stroke-width="1.25000000000" stroke-linecap="square" stroke-linejoin="miter" stroke-miterlimit="2.00000000000" d="M13.6954 18.0696L0 18.0696L19.5648 0L39.1296 18.0696L25.4342 18.0696L25.4342 45.174L13.6954 45.174Z"/>
  <path id="shape12" transform="translate(107.876, 254.534)" fill="#ffffff" fill-opacity="0.00000000000" fill-rule="evenodd" stroke="#000000" stroke-width="1.25000000000" stroke-linecap="square" stroke-linejoin="miter" stroke-miterlimit="2.00000000000" d="M13.6954 22.5955L0 22.5955L19.5648 0L39.1296 22.5955L25.4342 22.5955L25.4342 56.4887L13.6954 56.4887Z"/>
  <path id="shape13" transform="translate(403.91, 254.085)" fill="#ffffff" fill-opacity="0.00000000000" fill-rule="evenodd" stroke="#000000" stroke-width="1.25000000000" stroke-linecap="square" stroke-linejoin="miter" stroke-miterlimit="2.00000000000" d="M13.6954 22.5955L0 22.5955L19.5648 0L39.1296 22.5955L25.4342 22.5955L25.4342 56.4887L13.6954 56.4887Z"/>
  <path id="shape14" transform="translate(602.766, 254.085)" fill="#ffffff" fill-opacity="0.00000000000" fill-rule="evenodd" stroke="#000000" stroke-width="1.25000000000" stroke-linecap="square" stroke-linejoin="miter" stroke-miterlimit="2.00000000000" d="M13.6954 23.1353L0 23.1353L19.5648 0L39.1296 23.1353L25.4342 23.1353L25.4342 57.8384L13.6954 57.8384Z"/>
  <path id="shape15" transform="translate(262.31, 390.504)" fill="#000000" d="M0 0L18.0075 32.4134"/>
  <path id="shape16" transform="translate(382.699, 55.4089)" fill="#ffffff" fill-opacity="0.00000000000" fill-rule="evenodd" stroke="#000000" stroke-width="1.25000000000" stroke-linecap="square" stroke-linejoin="miter" stroke-miterlimit="2.00000000000" d="M13.6954 18.0696L0 18.0696L19.5648 0L39.1296 18.0696L25.4342 18.0696L25.4342 45.174L13.6954 45.174Z"/>
  <path id="shape17" transform="translate(527.119, 55.9539)" fill="#ffffff" fill-opacity="0.00000000000" fill-rule="evenodd" stroke="#000000" stroke-width="1.25000000000" stroke-linecap="square" stroke-linejoin="miter" stroke-miterlimit="2.00000000000" d="M13.6954 18.0696L0 18.0696L19.5648 0L39.1296 18.0696L25.4342 18.0696L25.4342 45.174L13.6954 45.174Z"/>
 </g><g id="New layer">
  <path id="shape18" transform="translate(705.617, 110.59)" fill="#ffffff" fill-opacity="0.00000000000" fill-rule="evenodd" stroke="#000000" stroke-width="1.25000000000" stroke-linecap="square" stroke-linejoin="miter" stroke-miterlimit="2.00000000000" d="M12.7956 10.121L12.7956 0L0 14.4585L12.7956 28.917L12.7956 18.7961L31.9889 18.7961L31.9889 10.121Z"/>
  <path id="shape19" transform="translate(125.584, 121.037)" fill="none" stroke="#000000" stroke-width="1.41732529000" stroke-linecap="square" stroke-linejoin="miter" stroke-miterlimit="2.00000000000" d="M0.264023 247.888L0 282.239L612.663 282.801L612.091 0"/>
 </g><g id="layer1">
  <text id="shape0" fill="#000000" font-family="ComicSans" font-size="20.00000000000pt" x="0.00000000000pt" y="14.57812500000pt" transform="translate(33.7426, 116.398)"><tspan x="0"  y="18.2227">Proxy</tspan></text>
  <text id="shape01" fill="#000000" font-family="ComicSans" font-size="20.00000000000pt" x="0.00000000000pt" y="15.20312500000pt" transform="translate(19.9287, 215.494)"><tspan x="0"  y="19.0039">OwnedUpgradeabilityProxy</tspan></text>
  <text id="shape02" fill="#000000" font-family="ComicSans" font-size="20.00000000000pt" x="0.00000000000pt" y="15.20312500000pt" transform="translate(265.467, 115.617)"><tspan>Owned</tspan></text>
  <text id="shape03" fill="#000000" font-family="ComicSans" font-size="20.00000000000pt" x="0.00000000000pt" y="15.20312500000pt" transform="translate(518.734, 115.353)"><tspan x="0"  y="19.0039">TokenStorage</tspan></text>
  <text id="shape04" fill="#000000" font-family="ComicSans" font-size="20.00000000000pt" x="0.00000000000pt" y="15.20312500000pt" transform="translate(10, 36)"><textPath xlink:href="#baseline0"><tspan>OwnedTokenStorage</tspan></textPath></text>
  <text id="shape05" fill="#000000" font-family="ComicSans" font-size="20.00000000000pt" x="0.00000000000pt" y="15.20312500000pt" transform="matrix(1.15881 0 0 1 38.0576 327.969)"><tspan x="0"  y="19.0039">TokenProxy</tspan></text>
  <text id="shape06" fill="#000000" font-family="ComicSans" font-size="20.00000000000pt" x="0.00000000000pt" y="15.20312000000pt" transform="matrix(1.20827 0 0 1 359.54 327.519)"><tspan x="0"  y="19.0039">TokenV0</tspan></text>
  <text id="shape07" fill="#000000" font-family="ComicSans" font-size="20.00000000000pt" x="0.00000000000pt" y="15.20312500000pt" transform="matrix(1.20827 0 0 1 556.596 328.869)"><tspan x="0"  y="19.0039">TokenV1</tspan></text>
  <rect id="shape20" transform="translate(350.425, 3.11677)" fill="#ffffff" fill-opacity="0.00000000000" fill-rule="evenodd" stroke="#000000" stroke-width="1.25000000000" stroke-linecap="square" stroke-linejoin="miter" stroke-miterlimit="2.00000000000" width="186.16647177628pt" height="41.75066074602pt"/>
  <text id="shape08" fill="#000000" font-family="ComicSans" font-size="20.00000000000pt" x="0.00000000000pt" y="14.84375000000pt" transform="translate(419.697, 18.5135)"><tspan>Storage</tspan></text>
 </g>
</svg>
