<?xml version="1.0" standalone="no"?>
<!DOCTYPE svg PUBLIC "-//W3C//DTD SVG 20010904//EN" "http://www.w3.org/TR/2001/REC-SVG-20010904/DTD/svg10.dtd">
<!-- Created using Karbon, part of Calligra: http://www.calligra.org/karbon -->
<svg xmlns="http://www.w3.org/2000/svg" xmlns:xlink="http://www.w3.org/1999/xlink" width="595.277pt" height="841.891pt">
<defs/>
<g id="layer0">
  <rect id="shape0" transform="translate(16.1964, 15.2171)" fill="#ffffff" fill-rule="evenodd" stroke="#000000" stroke-width="1.25000000000" stroke-linecap="square" stroke-linejoin="miter" stroke-miterlimit="2.00000000000" width="77.74260966500pt" height="43.25390894596pt"/>
  <rect id="shape1" transform="translate(142.064, 16.1964)" fill="#ffffff" fill-rule="evenodd" stroke="#000000" stroke-width="1.25000000000" stroke-linecap="square" stroke-linejoin="miter" stroke-miterlimit="2.00000000000" width="240.50947317034pt" height="41.75066074602pt"/>
  <rect id="shape2" transform="translate(503.887, 16.3805)" fill="#ffffff" fill-rule="evenodd" stroke="#000000" stroke-width="1.25000000000" stroke-linecap="square" stroke-linejoin="miter" stroke-miterlimit="2.00000000000" width="159.80425320027pt" height="41.39255907840pt"/>
  <rect id="shape3" transform="translate(335.948, 114.211)" fill="#ffffff" fill-rule="evenodd" stroke="#000000" stroke-width="1.25000000000" stroke-linecap="square" stroke-linejoin="miter" stroke-miterlimit="2.00000000000" width="294.62090139205pt" height="43.91744896743pt"/>
  <rect id="shape4" transform="translate(15.8424, 114.638)" fill="#ffffff" fill-rule="evenodd" stroke="#000000" stroke-width="1.25000000000" stroke-linecap="square" stroke-linejoin="miter" stroke-miterlimit="2.00000000000" width="226.74927818957pt" height="44.33912087824pt"/>
  <text id="shape5" fill="#000000" font-family="ComicSans" font-size="20.00000000000pt" x="0.00000000000pt" y="14.57812500000pt" transform="translate(32.6526, 31.9252)"><tspan>Proxy</tspan></text>
  <text id="shape0" fill="#000000" font-family="ComicSans" font-size="20.00000000000pt" x="0.00000000000pt" y="15.20312500000pt" transform="translate(34.0983, 131.022)"><tspan>UpgradeabilityProxy</tspan></text>
  <text id="shape01" fill="#000000" font-family="ComicSans" font-size="20.00000000000pt" x="0.00000000000pt" y="15.20312500000pt" transform="translate(155.925, 31.1442)"><tspan>UpgradeabilityStorage</tspan></text>
  <text id="shape02" fill="#000000" font-family="ComicSans" font-size="20.00000000000pt" x="0.00000000000pt" y="15.20312500000pt" transform="translate(517.644, 30.8807)"><tspan>TokenStorage</tspan></text>
  <text id="shape03" fill="#000000" font-family="ComicSans" font-size="20.00000000000pt" x="0.00000000000pt" y="15.20312500000pt" transform="translate(353.563, 130.967)"><tspan>UpgradeableTokenStorage</tspan></text>
  <rect id="shape6" transform="translate(16.5555, 226.74)" fill="#ffffff" fill-rule="evenodd" stroke="#000000" stroke-width="1.25000000000" stroke-linecap="square" stroke-linejoin="miter" stroke-miterlimit="2.00000000000" width="168.64908017562pt" height="43.91744896743pt"/>
  <text id="shape04" fill="#000000" font-family="ComicSans" font-size="20.00000000000pt" x="0.00000000000pt" y="15.20312500000pt" transform="matrix(1.15881 0 0 1 36.9676 243.497)"><tspan>TokenProxy</tspan></text>
  <rect id="shape7" transform="translate(337.166, 226.29)" fill="#ffffff" fill-rule="evenodd" stroke="#000000" stroke-width="1.25000000000" stroke-linecap="square" stroke-linejoin="miter" stroke-miterlimit="2.00000000000" width="136.25632614854pt" height="43.91744896743pt"/>
  <text id="shape05" fill="#000000" font-family="ComicSans" font-size="20.00000000000pt" x="0.00000000000pt" y="15.20312500000pt" transform="matrix(1.20827 0 0 1 358.45 243.047)"><tspan x="0"  y="19.0039">TokenV0</tspan></text>
  <rect id="shape8" transform="translate(534.222, 227.64)" fill="#ffffff" fill-rule="evenodd" stroke="#000000" stroke-width="1.25000000000" stroke-linecap="square" stroke-linejoin="miter" stroke-miterlimit="2.00000000000" width="136.25632614854pt" height="43.91744896743pt"/>
  <text id="shape06" fill="#000000" font-family="ComicSans" font-size="20.00000000000pt" x="0.00000000000pt" y="15.20312000000pt" transform="matrix(1.20827 0 0 1 555.506 244.397)"><tspan x="0"  y="19.0039">TokenV1</tspan></text>
  <path id="shape9" transform="translate(45.4921, 69.3517)" fill="#ffffff" fill-rule="evenodd" stroke="#000000" stroke-width="1.25000000000" stroke-linecap="square" stroke-linejoin="miter" stroke-miterlimit="2.00000000000" d="M13.6954 18.0696L0 18.0696L19.5648 0L39.1296 18.0696L25.4342 18.0696L25.4342 45.174L13.6954 45.174Z"/>
  <path id="shape10" transform="translate(199.466, 69.3517)" fill="#ffffff" fill-rule="evenodd" stroke="#000000" stroke-width="1.25000000000" stroke-linecap="square" stroke-linejoin="miter" stroke-miterlimit="2.00000000000" d="M13.6954 18.0696L0 18.0696L19.5648 0L39.1296 18.0696L25.4342 18.0696L25.4342 45.174L13.6954 45.174Z"/>
  <path id="shape11" transform="translate(371.254, 69.0335)" fill="#ffffff" fill-rule="evenodd" stroke="#000000" stroke-width="1.25000000000" stroke-linecap="square" stroke-linejoin="miter" stroke-miterlimit="2.00000000000" d="M13.6954 18.0696L0 18.0696L19.5648 0L39.1296 18.0696L25.4342 18.0696L25.4342 45.174L13.6954 45.174Z"/>
  <path id="shape12" transform="translate(585.99, 69.0335)" fill="#ffffff" fill-rule="evenodd" stroke="#000000" stroke-width="1.25000000000" stroke-linecap="square" stroke-linejoin="miter" stroke-miterlimit="2.00000000000" d="M13.6954 18.0696L0 18.0696L19.5648 0L39.1296 18.0696L25.4342 18.0696L25.4342 45.174L13.6954 45.174Z"/>
  <path id="shape13" transform="translate(106.786, 170.062)" fill="#ffffff" fill-rule="evenodd" stroke="#000000" stroke-width="1.25000000000" stroke-linecap="square" stroke-linejoin="miter" stroke-miterlimit="2.00000000000" d="M13.6954 22.5955L0 22.5955L19.5648 0L39.1296 22.5955L25.4342 22.5955L25.4342 56.4887L13.6954 56.4887Z"/>
  <path id="shape14" transform="translate(402.82, 169.612)" fill="#ffffff" fill-rule="evenodd" stroke="#000000" stroke-width="1.25000000000" stroke-linecap="square" stroke-linejoin="miter" stroke-miterlimit="2.00000000000" d="M13.6954 22.5955L0 22.5955L19.5648 0L39.1296 22.5955L25.4342 22.5955L25.4342 56.4887L13.6954 56.4887Z"/>
  <path id="shape15" transform="translate(601.676, 169.612)" fill="#ffffff" fill-rule="evenodd" stroke="#000000" stroke-width="1.25000000000" stroke-linecap="square" stroke-linejoin="miter" stroke-miterlimit="2.00000000000" d="M13.6954 23.1353L0 23.1353L19.5648 0L39.1296 23.1353L25.4342 23.1353L25.4342 57.8384L13.6954 57.8384Z"/>
  <path id="shape16" transform="translate(261.22, 306.031)" fill="#000000" d="M0 0L18.375 31.8264"/>
  <path id="shape17" transform="translate(124.494, 36.5646)" fill="none" stroke="#000000" stroke-width="1.41732529000" stroke-linecap="square" stroke-linejoin="miter" stroke-miterlimit="1.98425540600" d="M0.263987 247.757L0 282.089L612.582 282.65L612.009 0"/>
  <path id="shape18" transform="translate(704.527, 26.1176)" fill="#ffffff" fill-rule="evenodd" stroke="#000000" stroke-width="1.25000000000" stroke-linecap="square" stroke-linejoin="miter" stroke-miterlimit="2.00000000000" d="M12.7956 10.121L12.7956 0L0 14.4585L12.7956 28.917L12.7956 18.7961L31.9889 18.7961L31.9889 10.121Z"/>
 </g>
</svg>
