<?xml version="1.0" encoding="UTF-8" standalone="no"?>
<!DOCTYPE svg PUBLIC "-//W3C//DTD SVG 1.1//EN"
 "http://www.w3.org/Graphics/SVG/1.1/DTD/svg11.dtd">
<!-- Generated by graphviz version 2.40.1 (20161225.0304)
 -->
<!-- Title: erc20_proxy_contracts Pages: 1 -->
<svg width="306pt" height="332pt"
 viewBox="0.00 0.00 305.97 332.00" xmlns="http://www.w3.org/2000/svg" xmlns:xlink="http://www.w3.org/1999/xlink">
<g id="graph0" class="graph" transform="scale(1 1) rotate(0) translate(4 328)">
<title>erc20_proxy_contracts</title>
<polygon fill="#ffffff" stroke="transparent" points="-4,4 -4,-328 301.9746,-328 301.9746,4 -4,4"/>
<!-- outs -->
<g id="node1" class="node">
<title>outs</title>
<polygon fill="none" stroke="#000000" points="277.5065,-108 72.4935,-108 72.4935,-72 277.5065,-72 277.5065,-108"/>
<text text-anchor="middle" x="175" y="-85.8" font-family="Times,serif" font-size="14.00" fill="#000000">OwnedUpgradeableTokenStorage</text>
</g>
<!-- up -->
<g id="node2" class="node">
<title>up</title>
<polygon fill="none" stroke="#000000" points="218.5189,-180 131.4811,-180 131.4811,-144 218.5189,-144 218.5189,-180"/>
<text text-anchor="middle" x="175" y="-157.8" font-family="Times,serif" font-size="14.00" fill="#000000">Upgradeable</text>
</g>
<!-- outs&#45;&gt;up -->
<g id="edge3" class="edge">
<title>outs&#45;&gt;up</title>
<path fill="none" stroke="#000000" d="M175,-108.1686C175,-115.869 175,-125.0257 175,-133.5834"/>
<polygon fill="#000000" stroke="#000000" points="171.5001,-133.5867 175,-143.5867 178.5001,-133.5868 171.5001,-133.5867"/>
</g>
<!-- tst -->
<g id="node5" class="node">
<title>tst</title>
<polygon fill="none" stroke="#000000" points="112.5548,-180 19.4452,-180 19.4452,-144 112.5548,-144 112.5548,-180"/>
<text text-anchor="middle" x="66" y="-157.8" font-family="Times,serif" font-size="14.00" fill="#000000">TokenStorage</text>
</g>
<!-- outs&#45;&gt;tst -->
<g id="edge7" class="edge">
<title>outs&#45;&gt;tst</title>
<path fill="none" stroke="#000000" d="M147.4947,-108.1686C133.682,-117.2926 116.7744,-128.461 101.9471,-138.2551"/>
<polygon fill="#000000" stroke="#000000" points="99.9114,-135.4051 93.4965,-143.8372 103.7696,-141.2459 99.9114,-135.4051"/>
</g>
<!-- own -->
<g id="node3" class="node">
<title>own</title>
<polygon fill="none" stroke="#000000" points="189.4363,-252 132.5637,-252 132.5637,-216 189.4363,-216 189.4363,-252"/>
<text text-anchor="middle" x="161" y="-229.8" font-family="Times,serif" font-size="14.00" fill="#000000">Owned</text>
</g>
<!-- up&#45;&gt;own -->
<g id="edge4" class="edge">
<title>up&#45;&gt;own</title>
<path fill="none" stroke="#000000" d="M171.4672,-180.1686C169.9699,-187.869 168.1895,-197.0257 166.5255,-205.5834"/>
<polygon fill="#000000" stroke="#000000" points="163.0535,-205.1025 164.5804,-215.5867 169.9248,-206.4386 163.0535,-205.1025"/>
</g>
<!-- stg -->
<g id="node4" class="node">
<title>stg</title>
<polygon fill="none" stroke="#000000" points="149.2661,-324 90.7339,-324 90.7339,-288 149.2661,-288 149.2661,-324"/>
<text text-anchor="middle" x="120" y="-301.8" font-family="Times,serif" font-size="14.00" fill="#000000">Storage</text>
</g>
<!-- own&#45;&gt;stg -->
<g id="edge5" class="edge">
<title>own&#45;&gt;stg</title>
<path fill="none" stroke="#000000" d="M150.654,-252.1686C146.0763,-260.2075 140.5948,-269.8334 135.5412,-278.7082"/>
<polygon fill="#000000" stroke="#000000" points="132.3923,-277.1649 130.4853,-287.5867 138.4752,-280.6288 132.3923,-277.1649"/>
</g>
<!-- tst&#45;&gt;stg -->
<g id="edge9" class="edge">
<title>tst&#45;&gt;stg</title>
<path fill="none" stroke="#000000" d="M72.8391,-180.2377C82.1308,-205.0154 98.8232,-249.5286 109.6523,-278.4061"/>
<polygon fill="#000000" stroke="#000000" points="106.4279,-279.776 113.2164,-287.9104 112.9822,-277.3181 106.4279,-279.776"/>
</g>
<!-- tv0 -->
<g id="node6" class="node">
<title>tv0</title>
<polygon fill="none" stroke="#000000" points="121.9492,-36 52.0508,-36 52.0508,0 121.9492,0 121.9492,-36"/>
<text text-anchor="middle" x="87" y="-13.8" font-family="Times,serif" font-weight="bold" font-size="14.00" fill="#000000">TokenV0</text>
</g>
<!-- tv0&#45;&gt;outs -->
<g id="edge1" class="edge">
<title>tv0&#45;&gt;outs</title>
<path fill="none" stroke="#000000" d="M109.2061,-36.1686C120.045,-45.0368 133.2444,-55.8363 144.9678,-65.4282"/>
<polygon fill="#000000" stroke="#000000" points="142.845,-68.2136 152.801,-71.8372 147.2777,-62.7959 142.845,-68.2136"/>
</g>
<!-- tv1 -->
<g id="node7" class="node">
<title>tv1</title>
<polygon fill="none" stroke="#000000" points="209.9492,-36 140.0508,-36 140.0508,0 209.9492,0 209.9492,-36"/>
<text text-anchor="middle" x="175" y="-13.8" font-family="Times,serif" font-weight="bold" font-size="14.00" fill="#000000">TokenV1</text>
</g>
<!-- tv1&#45;&gt;outs -->
<g id="edge2" class="edge">
<title>tv1&#45;&gt;outs</title>
<path fill="none" stroke="#000000" d="M175,-36.1686C175,-43.869 175,-53.0257 175,-61.5834"/>
<polygon fill="#000000" stroke="#000000" points="171.5001,-61.5867 175,-71.5867 178.5001,-61.5868 171.5001,-61.5867"/>
</g>
<!-- tvx -->
<g id="node8" class="node">
<title>tvx</title>
<polygon fill="none" stroke="#000000" points="297.9492,-36 228.0508,-36 228.0508,0 297.9492,0 297.9492,-36"/>
<text text-anchor="middle" x="263" y="-13.8" font-family="Times,serif" font-weight="bold" font-size="14.00" fill="#000000">TokenVx</text>
</g>
<!-- tvx&#45;&gt;outs -->
<g id="edge6" class="edge">
<title>tvx&#45;&gt;outs</title>
<path fill="none" stroke="#000000" d="M240.7939,-36.1686C229.955,-45.0368 216.7556,-55.8363 205.0322,-65.4282"/>
<polygon fill="#000000" stroke="#000000" points="202.7223,-62.7959 197.199,-71.8372 207.155,-68.2136 202.7223,-62.7959"/>
</g>
<!-- prx -->
<g id="node9" class="node">
<title>prx</title>
<polygon fill="none" stroke="#000000" points="54,-108 0,-108 0,-72 54,-72 54,-108"/>
<text text-anchor="middle" x="27" y="-85.8" font-family="Times,serif" font-weight="bold" font-size="14.00" fill="#000000">Proxy</text>
</g>
<!-- prx&#45;&gt;tst -->
<g id="edge8" class="edge">
<title>prx&#45;&gt;tst</title>
<path fill="none" stroke="#000000" d="M36.8413,-108.1686C41.1957,-116.2075 46.4098,-125.8334 51.2169,-134.7082"/>
<polygon fill="#000000" stroke="#000000" points="48.1857,-136.4608 56.0261,-143.5867 54.3408,-133.1268 48.1857,-136.4608"/>
</g>
</g>
</svg>
