<?xml version="1.0" encoding="utf-8"?>
<!-- Generator: Adobe Illustrator 19.0.0, SVG Export Plug-In . SVG Version: 6.00 Build 0)  -->
<svg version="1.1" id="Layer_2" xmlns="http://www.w3.org/2000/svg" xmlns:xlink="http://www.w3.org/1999/xlink" x="0px" y="0px"
	 viewBox="-47 308.9 500 225" style="enable-background:new -47 308.9 500 225;" xml:space="preserve">
<style type="text/css">
	.st0{fill:#6E6E6E;}
</style>
<g>
	<g>
		<rect x="187" y="421.5" class="st0" width="31.9" height="7.2"/>
		<rect x="141.9" y="421.5" class="st0" width="31.9" height="7.2"/>
		<g>
			<path class="st0" d="M2.4,428.3h-9.2v-48.5h-16.6v-7.9H19v7.9H2.4V428.3z"/>
			<path class="st0" d="M73.7,428.3h-9.3v-25.4h-26v25.4h-9.2v-56.4h9.2V395h26v-23.1h9.3V428.3z"/>
			<path class="st0" d="M99.4,405.8v22.5h-9.2v-56.4h15.9c7.3,0,12.7,1.4,16.2,4.1c3.5,2.7,5.2,6.8,5.2,12.3c0,7-3.7,12-11,15
				l15.9,25H122l-13.4-22.5H99.4z M99.4,398.2h6.4c4.3,0,7.4-0.8,9.3-2.4c1.9-1.6,2.9-4,2.9-7.1c0-3.2-1-5.5-3.1-6.9
				c-2.1-1.4-5.2-2.1-9.4-2.1h-6.1C99.4,379.7,99.4,398.2,99.4,398.2z"/>
			<path class="st0" d="M240.7,428.3h-9.1v-56.4h31.8v7.8h-22.7v17.6H262v7.8h-21.3V428.3z"/>
			<path class="st0" d="M325.3,400.1c0,9.2-2.3,16.3-6.9,21.4c-4.6,5.1-11.1,7.6-19.5,7.6c-8.5,0-15-2.5-19.6-7.6
				s-6.8-12.2-6.8-21.5c0-9.3,2.3-16.5,6.9-21.4c4.6-5,11.1-7.5,19.6-7.5c8.4,0,14.9,2.5,19.4,7.6
				C323,383.7,325.3,390.9,325.3,400.1z M282.3,400.1c0,6.9,1.4,12.2,4.2,15.8c2.8,3.6,7,5.4,12.5,5.4s9.6-1.8,12.4-5.3
				s4.2-8.8,4.2-15.9c0-6.9-1.4-12.2-4.1-15.7c-2.8-3.6-6.9-5.4-12.4-5.4s-9.7,1.8-12.5,5.4C283.7,387.9,282.3,393.2,282.3,400.1z"
				/>
			<path class="st0" d="M339.1,428.3v-56.4h9.2v48.5h23.9v7.9H339.1z"/>
			<path class="st0" d="M429.4,399.6c0,9.3-2.6,16.4-7.8,21.3c-5.2,4.9-12.6,7.4-22.3,7.4h-15.8v-56.4H401c9,0,16,2.4,20.9,7.3
				C426.9,384.1,429.4,390.9,429.4,399.6z M419.7,399.9c0-13.5-6.3-20.2-18.9-20.2h-8v40.9h6.6C412.9,420.6,419.7,413.7,419.7,399.9
				z"/>
			<rect x="187" y="372.2" class="st0" width="31.9" height="7.2"/>
			<rect x="187" y="396.1" class="st0" width="30.4" height="7.2"/>
			<rect x="141.9" y="372.2" class="st0" width="31.9" height="7.2"/>
			<rect x="141.9" y="396.1" class="st0" width="30.4" height="7.2"/>
		</g>
	</g>
	<path class="st0" d="M-10.5,466.1c-1.9,0-3.4-0.6-4.4-1.7s-1.5-2.7-1.5-4.8c0-2.1,0.5-3.8,1.6-4.9s2.5-1.7,4.5-1.7
		c1.3,0,2.5,0.2,3.6,0.7l-0.8,2.2c-1.1-0.4-2.1-0.7-2.8-0.7c-2.2,0-3.3,1.5-3.3,4.4c0,1.4,0.3,2.5,0.8,3.2s1.3,1.1,2.4,1.1
		c1.2,0,2.3-0.3,3.4-0.9v2.3c-0.5,0.3-1,0.5-1.5,0.6S-9.7,466.1-10.5,466.1z"/>
	<path class="st0" d="M20.9,459.5c0,2.1-0.5,3.7-1.6,4.8c-1.1,1.2-2.5,1.7-4.4,1.7c-1.2,0-2.2-0.3-3.1-0.8s-1.6-1.3-2.1-2.3
		S9,460.7,9,459.4c0-2.1,0.5-3.7,1.6-4.8s2.5-1.7,4.5-1.7c1.8,0,3.3,0.6,4.4,1.8C20.3,455.9,20.9,457.5,20.9,459.5z M11.6,459.5
		c0,2.9,1.1,4.4,3.2,4.4s3.2-1.5,3.2-4.4s-1.1-4.3-3.2-4.3c-1.1,0-1.9,0.4-2.5,1.1C11.9,457.1,11.6,458.1,11.6,459.5z"/>
	<path class="st0" d="M47.9,465.9h-2.7v-7.8c0-1-0.2-1.7-0.6-2.2c-0.4-0.5-1-0.7-1.9-0.7c-1.1,0-2,0.3-2.5,1s-0.8,1.8-0.8,3.4v6.3
		h-2.7v-12.7h2.1l0.4,1.7h0.1c0.4-0.6,0.9-1.1,1.6-1.4s1.5-0.5,2.3-0.5c3,0,4.6,1.5,4.6,4.6v8.3H47.9z"/>
	<path class="st0" d="M75.6,465.9h-2.7v-7.8c0-1-0.2-1.7-0.6-2.2c-0.4-0.5-1-0.7-1.9-0.7c-1.1,0-2,0.3-2.5,1s-0.8,1.8-0.8,3.4v6.3
		h-2.7v-12.7h2.1l0.4,1.7H67c0.4-0.6,0.9-1.1,1.6-1.4s1.5-0.5,2.3-0.5c3,0,4.6,1.5,4.6,4.6v8.3H75.6z"/>
	<path class="st0" d="M98.5,466.1c-2,0-3.5-0.6-4.6-1.7c-1.1-1.2-1.7-2.7-1.7-4.7c0-2.1,0.5-3.7,1.5-4.9c1-1.2,2.4-1.8,4.2-1.8
		c1.7,0,3,0.5,4,1.5s1.5,2.4,1.5,4.2v1.5H95c0,1.2,0.4,2.2,1,2.8c0.6,0.7,1.5,1,2.6,1c0.7,0,1.4-0.1,2.1-0.2
		c0.6-0.1,1.3-0.4,2.1-0.7v2.2c-0.7,0.3-1.3,0.5-2,0.7S99.4,466.1,98.5,466.1z M98,455c-0.9,0-1.5,0.3-2.1,0.8
		c-0.5,0.5-0.8,1.3-0.9,2.4h5.8c0-1-0.3-1.8-0.8-2.4C99.5,455.3,98.9,455,98,455z"/>
	<path class="st0" d="M124.4,466.1c-1.9,0-3.4-0.6-4.4-1.7s-1.5-2.7-1.5-4.8c0-2.1,0.5-3.8,1.6-4.9c1-1.1,2.5-1.7,4.5-1.7
		c1.3,0,2.5,0.2,3.6,0.7l-0.8,2.2c-1.1-0.4-2.1-0.7-2.8-0.7c-2.2,0-3.3,1.5-3.3,4.4c0,1.4,0.3,2.5,0.8,3.2s1.3,1.1,2.4,1.1
		c1.2,0,2.3-0.3,3.4-0.9v2.3c-0.5,0.3-1,0.5-1.5,0.6S125.2,466.1,124.4,466.1z"/>
	<path class="st0" d="M149.2,463.9c0.7,0,1.3-0.1,2-0.3v2c-0.3,0.1-0.7,0.2-1.2,0.3c-0.5,0.1-1,0.1-1.5,0.1c-2.6,0-3.8-1.3-3.8-4
		v-6.8H143V454l1.9-1l0.9-2.7h1.7v2.8h3.6v2h-3.6v6.8c0,0.6,0.2,1.1,0.5,1.4C148.3,463.8,148.7,463.9,149.2,463.9z"/>
	<path class="st0" d="M166.4,449.9c0-0.5,0.1-0.9,0.4-1.1c0.3-0.3,0.6-0.4,1.1-0.4s0.8,0.1,1.1,0.4s0.4,0.6,0.4,1.1
		s-0.1,0.8-0.4,1.1c-0.3,0.3-0.6,0.4-1.1,0.4s-0.9-0.1-1.1-0.4C166.5,450.7,166.4,450.3,166.4,449.9z M169.3,465.9h-2.7v-12.7h2.7
		V465.9z"/>
	<path class="st0" d="M197.1,465.9h-2.7v-7.8c0-1-0.2-1.7-0.6-2.2c-0.4-0.5-1-0.7-1.9-0.7c-1.1,0-2,0.3-2.5,1s-0.8,1.8-0.8,3.4v6.3
		h-2.7v-12.7h2.1l0.4,1.7h0.1c0.4-0.6,0.9-1.1,1.6-1.4s1.5-0.5,2.3-0.5c3,0,4.6,1.5,4.6,4.6L197.1,465.9L197.1,465.9z"/>
	<path class="st0" d="M225.1,453.2v1.5l-2.2,0.4c0.2,0.3,0.4,0.6,0.5,1s0.2,0.8,0.2,1.2c0,1.3-0.5,2.3-1.4,3.1
		c-0.9,0.7-2.1,1.1-3.7,1.1c-0.4,0-0.8,0-1.1-0.1c-0.6,0.4-0.9,0.8-0.9,1.3c0,0.3,0.1,0.5,0.4,0.7c0.3,0.1,0.8,0.2,1.5,0.2h2.2
		c1.4,0,2.5,0.3,3.2,0.9s1.1,1.5,1.1,2.6c0,1.4-0.6,2.5-1.8,3.3s-2.9,1.2-5.1,1.2c-1.7,0-3-0.3-4-0.9s-1.4-1.5-1.4-2.6
		c0-0.8,0.2-1.4,0.7-2c0.5-0.5,1.2-0.9,2.1-1.1c-0.4-0.2-0.7-0.4-0.9-0.7c-0.2-0.3-0.3-0.7-0.3-1.1c0-0.5,0.1-0.9,0.4-1.2
		c0.3-0.3,0.7-0.7,1.2-1c-0.7-0.3-1.2-0.7-1.6-1.4c-0.4-0.6-0.6-1.4-0.6-2.2c0-1.4,0.4-2.4,1.3-3.2c0.9-0.8,2.1-1.1,3.7-1.1
		c0.4,0,0.7,0,1.1,0.1c0.4,0.1,0.7,0.1,0.9,0.2h4.5V453.2z M215.2,467.9c0,0.6,0.3,1,0.8,1.3s1.3,0.5,2.2,0.5c1.5,0,2.6-0.2,3.3-0.6
		s1.1-1,1.1-1.7c0-0.5-0.2-0.9-0.6-1.2c-0.4-0.2-1.1-0.3-2.2-0.3h-2c-0.8,0-1.4,0.2-1.8,0.5C215.4,466.7,215.2,467.2,215.2,467.9z
		 M216.3,457.3c0,0.8,0.2,1.4,0.6,1.8c0.4,0.4,1,0.6,1.8,0.6c1.6,0,2.3-0.8,2.3-2.5c0-0.8-0.2-1.5-0.6-1.9c-0.4-0.4-1-0.7-1.8-0.7
		s-1.4,0.2-1.8,0.7C216.5,455.8,216.3,456.5,216.3,457.3z"/>
	<path class="st0" d="M257.7,463.9c0.7,0,1.3-0.1,2-0.3v2c-0.3,0.1-0.7,0.2-1.2,0.3c-0.5,0.1-1,0.1-1.5,0.1c-2.6,0-3.8-1.3-3.8-4
		v-6.8h-1.7V454l1.9-1l0.9-2.7h1.7v2.8h3.6v2H256v6.8c0,0.6,0.2,1.1,0.5,1.4C256.7,463.8,257.1,463.9,257.7,463.9z"/>
	<path class="st0" d="M286.1,465.9h-2.7v-7.8c0-1-0.2-1.7-0.6-2.2s-1-0.7-1.9-0.7c-1.1,0-2,0.3-2.5,1s-0.8,1.8-0.8,3.4v6.3H275
		v-17.8h2.7v4.5c0,0.7,0,1.5-0.1,2.3h0.2c0.4-0.6,0.9-1.1,1.5-1.4c0.7-0.3,1.4-0.5,2.3-0.5c3.1,0,4.6,1.5,4.6,4.6v8.3H286.1z"/>
	<path class="st0" d="M309,466.1c-2,0-3.5-0.6-4.6-1.7c-1.1-1.2-1.7-2.7-1.7-4.7c0-2.1,0.5-3.7,1.5-4.9c1-1.2,2.4-1.8,4.2-1.8
		c1.7,0,3,0.5,4,1.5s1.5,2.4,1.5,4.2v1.5h-8.4c0,1.2,0.4,2.2,1,2.8c0.6,0.7,1.5,1,2.6,1c0.7,0,1.4-0.1,2.1-0.2
		c0.6-0.1,1.3-0.4,2.1-0.7v2.2c-0.7,0.3-1.3,0.5-2,0.7S309.9,466.1,309,466.1z M308.5,455c-0.9,0-1.5,0.3-2.1,0.8
		c-0.5,0.5-0.8,1.3-0.9,2.4h5.8c0-1-0.3-1.8-0.8-2.4C310,455.3,309.4,455,308.5,455z"/>
	<path class="st0" d="M340.5,466.1c-1.6,0-2.8-0.6-3.7-1.7c-0.9-1.1-1.3-2.8-1.3-4.8c0-2.1,0.4-3.7,1.3-4.9c0.9-1.2,2.1-1.7,3.7-1.7
		c1.7,0,2.9,0.6,3.8,1.8h0.1c-0.1-0.9-0.2-1.6-0.2-2.2V448h2.7v17.8h-2.1l-0.5-1.7h-0.1C343.4,465.5,342.1,466.1,340.5,466.1z
		 M341.2,463.9c1.1,0,1.9-0.3,2.4-0.9s0.8-1.6,0.8-3v-0.4c0-1.6-0.3-2.7-0.8-3.4c-0.5-0.7-1.3-1-2.4-1c-0.9,0-1.7,0.4-2.2,1.2
		c-0.5,0.8-0.8,1.9-0.8,3.3s0.2,2.5,0.7,3.2C339.5,463.6,340.2,463.9,341.2,463.9z"/>
	<path class="st0" d="M375.6,459.5c0,2.1-0.5,3.7-1.6,4.8c-1.1,1.2-2.5,1.7-4.4,1.7c-1.2,0-2.2-0.3-3.1-0.8s-1.6-1.3-2.1-2.3
		s-0.7-2.2-0.7-3.5c0-2.1,0.5-3.7,1.6-4.8s2.5-1.7,4.5-1.7c1.8,0,3.3,0.6,4.4,1.8C375.1,455.9,375.6,457.5,375.6,459.5z
		 M366.4,459.5c0,2.9,1.1,4.4,3.2,4.4s3.2-1.5,3.2-4.4s-1.1-4.3-3.2-4.3c-1.1,0-1.9,0.4-2.5,1.1
		C366.7,457.1,366.4,458.1,366.4,459.5z"/>
	<path class="st0" d="M397.1,463.9c0.7,0,1.3-0.1,2-0.3v2c-0.3,0.1-0.7,0.2-1.2,0.3c-0.5,0.1-1,0.1-1.5,0.1c-2.6,0-3.8-1.3-3.8-4
		v-6.8h-1.7V454l1.9-1l0.9-2.7h1.7v2.8h3.6v2h-3.6v6.8c0,0.6,0.2,1.1,0.5,1.4C396.1,463.8,396.5,463.9,397.1,463.9z"/>
	<path class="st0" d="M422.1,462.3c0,1.2-0.5,2.2-1.4,2.8c-0.9,0.7-2.2,1-3.9,1c-1.7,0-3-0.3-4.1-0.8V463c1.5,0.7,2.9,1,4.2,1
		c1.7,0,2.5-0.5,2.5-1.5c0-0.3-0.1-0.6-0.3-0.8c-0.2-0.2-0.5-0.4-0.9-0.7s-1-0.5-1.8-0.8c-1.5-0.6-2.4-1.1-3-1.7
		c-0.5-0.6-0.8-1.3-0.8-2.2c0-1.1,0.4-1.9,1.3-2.5s2.1-0.9,3.6-0.9s2.9,0.3,4.2,0.9l-0.9,2c-1.4-0.6-2.5-0.8-3.4-0.8
		c-1.4,0-2.1,0.4-2.1,1.2c0,0.4,0.2,0.7,0.6,1s1.2,0.7,2.4,1.1c1,0.4,1.8,0.8,2.3,1.1c0.5,0.3,0.8,0.7,1.1,1.2
		C422,461.1,422.1,461.7,422.1,462.3z"/>
</g>
</svg>
