<?xml version="1.0" encoding="utf-8"?>
<!-- Generator: Adobe Illustrator 22.0.1, SVG Export Plug-In . SVG Version: 6.00 Build 0)  -->
<svg version="1.1" id="Layer_1" xmlns="http://www.w3.org/2000/svg" xmlns:xlink="http://www.w3.org/1999/xlink" x="0px" y="0px"
	 viewBox="0 0 400 100" style="enable-background:new 0 0 400 100;" xml:space="preserve">
<style type="text/css">
	.st0{fill:#858D95;}
	.st1{fill:#5293CD;}
	.st2{fill:#66A982;}
</style>
<g>
	<path class="st0" d="M45.6,16.2H32v-4.5h33.1v4.5H51.4v37.3h-5.8V16.2z"/>
	<path class="st0" d="M72.1,11.7h5.7v17.5h21V11.7h5.8v41.7h-5.8V33.8h-21v19.6h-5.7V11.7z"/>
	<path class="st0" d="M140.8,53.4l-10.9-17.6h-8.2v17.6H116V11.7h14.1c9.2,0,15.9,3.1,15.9,11.7c0,6.5-4,10.4-10.1,11.8l11.5,18.2
		H140.8z M121.7,31.5h7.6c7,0,11-2.7,11-8.1c0-5.5-3.9-7.4-11-7.4h-7.6V31.5z"/>
</g>
<path class="st0" d="M227.9,11.7H254v4.5h-20.4v14.1h17.2v4.5h-17.2v18.7h-5.7V11.7z"/>
<path class="st0" d="M257.6,32.4c0-13.4,7.9-21.4,19.3-21.4c11.4,0,19.4,8.1,19.4,21.4c0,13.4-8,21.8-19.4,21.8
	C265.5,54.2,257.6,45.8,257.6,32.4z M290.3,32.4c0-10.4-5.3-16.8-13.4-16.8s-13.4,6.4-13.4,16.8c0,10.4,5.3,17.2,13.4,17.2
	S290.3,42.8,290.3,32.4z"/>
<path class="st0" d="M304.9,11.7h5.7v37.2h19.8v4.5h-25.5V11.7z"/>
<path class="st0" d="M337.3,11.7h11.3c13.9,0,21.4,7.4,21.4,20.7c0,13.3-7.5,21-21.1,21h-11.6V11.7z M348.2,49.1
	c10.6,0,15.9-6.2,15.9-16.7c0-10.5-5.3-16.3-15.9-16.3H343v33.1H348.2z"/>
<g>
	<path class="st0" d="M54.5,84.1c-0.5,0.3-1.8,0.8-3.6,0.8c-3.6,0-5.9-2.6-5.9-6.3c0-3.9,2.7-6.6,6.4-6.6c1.5,0,2.8,0.4,3.2,0.8
		l-0.4,1c-0.6-0.4-1.5-0.7-2.9-0.7c-3.3,0-5,2.5-5,5.4c0,3.2,2,5.4,4.9,5.4c1.5,0,2.4-0.4,3.1-0.7L54.5,84.1z"/>
	<path class="st0" d="M68.5,84.9c-3.2,0-5.7-2.5-5.7-6.4c0-4.2,2.8-6.6,5.8-6.6c3.4,0,5.7,2.6,5.7,6.4
		C74.5,82.9,71.3,84.9,68.5,84.9L68.5,84.9z M68.6,83.9c2.6,0,4.6-2.3,4.6-5.5c0-2.3-1.3-5.4-4.5-5.4c-3.2,0-4.6,2.8-4.6,5.5
		C64.1,81.6,66.1,83.9,68.6,83.9L68.6,83.9z"/>
	<path class="st0" d="M84.1,75.2c0-1.1,0-2-0.1-3h1.2l0.1,2.2h0.1c0.7-1.4,2.2-2.5,4.2-2.5c1.2,0,4.3,0.6,4.3,5.2v7.4h-1.2v-7.3
		c0-2.3-0.9-4.3-3.4-4.3c-1.7,0-3.2,1.2-3.7,2.9c-0.1,0.3-0.2,0.7-0.2,1.1v7.7h-1.2V75.2z"/>
	<path class="st0" d="M104.3,75.2c0-1.1,0-2-0.1-3h1.2l0.1,2.2h0.1c0.7-1.4,2.2-2.5,4.2-2.5c1.2,0,4.3,0.6,4.3,5.2v7.4h-1.2v-7.3
		c0-2.3-0.9-4.3-3.4-4.3c-1.7,0-3.2,1.2-3.7,2.9c-0.1,0.3-0.2,0.7-0.2,1.1v7.7h-1.2V75.2z"/>
	<path class="st0" d="M124.7,78.3c0,3.9,2.2,5.5,4.7,5.5c1.8,0,2.7-0.4,3.4-0.7l0.3,1c-0.5,0.3-1.7,0.8-3.9,0.8
		c-3.6,0-5.8-2.6-5.8-6.2c0-4.1,2.4-6.7,5.6-6.7c4,0,4.8,3.8,4.8,5.6c0,0.3,0,0.5-0.1,0.7H124.7z M132.6,77.3c0-1.7-0.7-4.3-3.7-4.3
		c-2.7,0-3.9,2.4-4.1,4.3H132.6z"/>
	<path class="st0" d="M152,84.1c-0.5,0.3-1.8,0.8-3.6,0.8c-3.6,0-5.9-2.6-5.9-6.3c0-3.9,2.7-6.6,6.4-6.6c1.5,0,2.8,0.4,3.2,0.8
		l-0.4,1c-0.6-0.4-1.5-0.7-2.9-0.7c-3.3,0-5,2.5-5,5.4c0,3.2,2,5.4,4.9,5.4c1.5,0,2.4-0.4,3.1-0.7L152,84.1z"/>
	<path class="st0" d="M163.4,69.5v2.7h3.5v1h-3.5v8c0,1.6,0.5,2.5,1.8,2.5c0.6,0,1.1-0.1,1.4-0.2l0.2,0.9c-0.4,0.2-1,0.3-1.7,0.3
		c-0.9,0-1.6-0.3-2.1-0.8c-0.6-0.6-0.8-1.7-0.8-3v-7.8h-2.1v-1h2.1V70L163.4,69.5z"/>
	<path class="st0" d="M176.6,69.8c-0.6,0-1-0.5-1-1.1c0-0.6,0.4-1.1,1-1.1c0.6,0,1,0.5,1,1.1C177.7,69.3,177.3,69.8,176.6,69.8
		L176.6,69.8z M176.1,84.6V72.3h1.2v12.4H176.1z"/>
	<path class="st0" d="M187.9,75.2c0-1.1,0-2-0.1-3h1.2l0.1,2.2h0.1c0.7-1.4,2.2-2.5,4.2-2.5c1.2,0,4.3,0.6,4.3,5.2v7.4h-1.2v-7.3
		c0-2.3-0.9-4.3-3.4-4.3c-1.7,0-3.2,1.2-3.7,2.9c-0.1,0.3-0.2,0.7-0.2,1.1v7.7h-1.2V75.2z"/>
	<path class="st0" d="M218,82.8c0,3.2-0.7,4.7-1.7,5.7c-1.1,1.1-2.8,1.5-4.2,1.5c-1.4,0-3-0.4-3.9-1.1l0.4-1c0.9,0.6,2.1,1,3.7,1
		c2.6,0,4.5-1.3,4.5-5v-1.8h-0.1c-0.6,1.3-2.1,2.4-4.3,2.4c-3.1,0-5.3-2.7-5.3-6.1c0-4.3,2.8-6.6,5.6-6.6c2.4,0,3.7,1.3,4.2,2.4h0.1
		l0.1-2.1h1.1c-0.1,0.9-0.1,1.9-0.1,3.2V82.8z M216.8,77c0-0.5,0-0.8-0.2-1.2c-0.5-1.5-1.8-2.8-3.8-2.8c-2.6,0-4.4,2.1-4.4,5.4
		c0,2.8,1.5,5.2,4.4,5.2c1.6,0,3.2-1,3.8-2.8c0.1-0.4,0.2-0.9,0.2-1.3V77z"/>
	<path class="st0" d="M242.4,69.5v2.7h3.5v1h-3.5v8c0,1.6,0.5,2.5,1.8,2.5c0.6,0,1.1-0.1,1.4-0.2l0.2,0.9c-0.4,0.2-1,0.3-1.7,0.3
		c-0.9,0-1.6-0.3-2.1-0.8c-0.6-0.6-0.8-1.7-0.8-3v-7.8H239v-1h2.1V70L242.4,69.5z"/>
	<path class="st0" d="M255.1,66.3h1.2v8.2h0.1c0.4-0.7,1-1.3,1.7-1.8c0.7-0.4,1.6-0.7,2.5-0.7c1.2,0,4.3,0.6,4.3,5.2v7.4h-1.2v-7.3
		c0-2.2-0.9-4.2-3.4-4.2c-1.8,0-3.2,1.3-3.7,2.8c-0.1,0.4-0.2,0.7-0.2,1.2v7.5h-1.2V66.3z"/>
	<path class="st0" d="M275.5,78.3c0,3.9,2.2,5.5,4.7,5.5c1.8,0,2.7-0.4,3.4-0.7l0.3,1c-0.5,0.3-1.7,0.8-3.9,0.8
		c-3.6,0-5.8-2.6-5.8-6.2c0-4.1,2.4-6.7,5.6-6.7c4,0,4.8,3.8,4.8,5.6c0,0.3,0,0.5-0.1,0.7H275.5z M283.4,77.3c0-1.7-0.7-4.3-3.7-4.3
		c-2.7,0-3.9,2.4-4.1,4.3H283.4z"/>
	<path class="st0" d="M316.2,66.3v15.5c0,0.9,0,2,0.1,2.9h-1.1l-0.1-2.3H315c-0.6,1.4-2.1,2.6-4.4,2.6c-3.1,0-5.3-2.5-5.3-6.2
		c0-4.1,2.5-6.7,5.6-6.7c2.1,0,3.5,1.1,4,2.2h0.1v-7.9H316.2z M314.9,77.1c0-0.3,0-0.8-0.1-1.1c-0.4-1.6-1.9-3-3.9-3
		c-2.7,0-4.4,2.3-4.4,5.5c0,2.8,1.4,5.3,4.3,5.3c1.8,0,3.5-1.2,4-3.2c0.1-0.3,0.1-0.6,0.1-1V77.1z"/>
	<path class="st0" d="M331.4,84.9c-3.2,0-5.7-2.5-5.7-6.4c0-4.2,2.8-6.6,5.8-6.6c3.4,0,5.7,2.6,5.7,6.4
		C337.3,82.9,334.1,84.9,331.4,84.9L331.4,84.9z M331.5,83.9c2.6,0,4.6-2.3,4.6-5.5c0-2.3-1.3-5.4-4.5-5.4c-3.2,0-4.6,2.8-4.6,5.5
		C327,81.6,328.9,83.9,331.5,83.9L331.5,83.9z"/>
	<path class="st0" d="M348.6,69.5v2.7h3.5v1h-3.5v8c0,1.6,0.5,2.5,1.8,2.5c0.6,0,1.1-0.1,1.4-0.2l0.2,0.9c-0.4,0.2-1,0.3-1.7,0.3
		c-0.9,0-1.6-0.3-2.1-0.8c-0.6-0.6-0.8-1.7-0.8-3v-7.8h-2.1v-1h2.1V70L348.6,69.5z"/>
	<path class="st0" d="M360.8,83c0.7,0.4,1.7,0.8,2.8,0.8c2,0,2.9-1.1,2.9-2.3c0-1.4-0.8-2.1-2.6-2.8c-2-0.8-3.1-1.9-3.1-3.4
		c0-1.8,1.4-3.3,3.8-3.3c1.1,0,2.1,0.3,2.7,0.8l-0.5,1c-0.4-0.3-1.2-0.7-2.5-0.7c-1.6,0-2.4,1-2.4,2.1c0,1.3,0.9,1.8,2.5,2.5
		c2,0.8,3.2,1.8,3.2,3.7c0,2.1-1.6,3.5-4.2,3.5c-1.2,0-2.3-0.3-3.1-0.8L360.8,83z"/>
</g>
<path class="st1" d="M154.9,11.7H181v4.5h-26.1V11.7z"/>
<path class="st2" d="M154.9,30.4H181v4.5h-26.1V30.4z"/>
<path class="st0" d="M154.9,49H181v4.5h-26.1V49z"/>
<path class="st1" d="M191.4,11.7h26.1v4.5h-26.1V11.7z"/>
<path class="st2" d="M191.4,30.4h26.1v4.5h-26.1V30.4z"/>
<path class="st0" d="M191.4,49h26.1v4.5h-26.1V49z"/>
</svg>
